<svg xmlns="http://www.w3.org/2000/svg" viewBox="0 0 512 512">
  <defs><radialGradient id="b"><stop stop-color="#85150d"/><stop offset=".62" stop-color="#260506"/><stop offset="1" stop-color="#030202"/></radialGradient><linearGradient id="g" x2="0" y2="1"><stop stop-color="#ffd45b"/><stop offset=".45" stop-color="#f04a25"/><stop offset="1" stop-color="#720b08"/></linearGradient></defs>
  <rect width="512" height="512" rx="96" fill="url(#b)"/>
  <path d="M99 87l96 87-42 35-80-19zm314 0l-96 87 42 35 80-19z" fill="#151013" stroke="#e14325" stroke-width="12"/>
  <path d="M256 113c94 0 153 72 147 170-5 87-64 155-147 162-83-7-142-75-147-162-6-98 53-170 147-170z" fill="#281012" stroke="url(#g)" stroke-width="18"/>
  <path d="M166 263l61-27-17 62-53 2zm180 0l-61-27 17 62 53 2z" fill="#ffd74a"/>
  <path d="M208 349l48-28 48 28-18 48h-60z" fill="#070405" stroke="#e33a20" stroke-width="10"/>
  <text x="256" y="475" text-anchor="middle" font-family="Impact,Arial Black,sans-serif" font-size="62" fill="#ffc43a">HC V</text>
</svg>
